<svg xmlns="http://www.w3.org/2000/svg" width="512" height="512" style="enable-background:new 0 0 512 512" xml:space="preserve"><circle xmlns="http://www.w3.org/2000/svg" cx="256" cy="90.373" fill="currentColor" r="35.661" /><path xmlns="http://www.w3.org/2000/svg" d="M245.001 56.445a35.287 35.287 0 0 1 10.995-1.734c19.695 0 35.661 15.966 35.661 35.661s-15.966 35.661-35.661 35.661c-3.839 0-7.537-.601-10.995-1.734 14.323-4.62 24.676-18.061 24.676-33.927s-10.354-29.306-24.676-33.927z" fill="currentColor"/><path xmlns="http://www.w3.org/2000/svg" d="M201.464 392.504h109.071c8.261 0 14.958 6.697 14.958 14.958v35.078c0 8.261-6.697 14.958-14.958 14.958H201.464c-8.261 0-14.958-6.697-14.958-14.958v-35.078c.001-8.261 6.698-14.958 14.958-14.958z" fill="currentColor"/><path xmlns="http://www.w3.org/2000/svg" d="M186.507 431.453v-23.995c0-8.259 6.695-14.954 14.954-14.954H310.54c8.259 0 14.954 6.695 14.954 14.954v23.995c0-8.259-6.695-14.954-14.954-14.954H201.461c-8.258 0-14.954 6.695-14.954 14.954z" fill="currentColor" /><circle xmlns="http://www.w3.org/2000/svg" cx="256" cy="255.891" fill="currentColor" r="92.909" /><path xmlns="http://www.w3.org/2000/svg" d="M434.644 180.75c12.223 0 23.441-8.17 26.753-20.526l30.7-114.575c3.952-14.747-4.831-29.961-19.578-33.912L432.284.955c-7.145-1.915-14.606-.932-21.011 2.767s-10.987 9.669-12.901 16.813L384.88 70.886h-25.727c-4.143 0-7.5 3.358-7.5 7.5s3.357 7.5 7.5 7.5h21.708l-2.409 8.993h-79.526a43.435 43.435 0 0 0 .001-8.993h30.227c4.143 0 7.5-3.358 7.5-7.5s-3.357-7.5-7.5-7.5H294.49c-7.135-14.029-21.703-23.668-38.49-23.668-16.786 0-31.354 9.639-38.488 23.667h-79.945l6.762-25.235c1.915-7.144.933-14.606-2.765-21.011s-9.67-10.987-16.813-12.901L84.516.955c-14.748-3.95-29.961 4.832-33.913 19.58l-30.7 114.575c-3.952 14.747 4.831 29.961 19.578 33.912l40.235 10.781c2.386.639 4.807.955 7.212.955 4.798 0 9.533-1.258 13.8-3.722 6.405-3.698 10.987-9.669 12.901-16.813l13.49-50.345h90.396a43.455 43.455 0 0 0 17.989 18.475v29.24c-45.568 9.489-79.911 49.959-79.911 98.301s34.343 88.812 79.911 98.301v30.806h-34.04c-11.724 0-21.373 9.031-22.369 20.501h-48.463v-39.809c0-15.268-12.422-27.689-27.689-27.689H61.29c-15.268 0-27.69 12.421-27.69 27.689V484.31c0 15.269 12.422 27.69 27.69 27.69h41.654c15.267 0 27.689-12.421 27.689-27.689v-39.814h48.463c.995 11.471 10.644 20.504 22.369 20.504h15c4.143 0 7.5-3.358 7.5-7.5s-3.357-7.5-7.5-7.5h-15c-4.113 0-7.46-3.347-7.46-7.46v-35.08c0-4.113 3.347-7.46 7.46-7.46h109.069c4.113 0 7.46 3.347 7.46 7.46v35.08c0 4.113-3.347 7.46-7.46 7.46h-64.069c-4.143 0-7.5 3.358-7.5 7.5s3.357 7.5 7.5 7.5h64.069c11.725 0 21.374-9.033 22.369-20.504h48.465v39.814c0 15.268 12.422 27.689 27.689 27.689h41.655c15.267 0 27.689-12.421 27.689-27.689V365.694c0-15.268-12.422-27.689-27.689-27.689h-41.655c-15.267 0-27.689 12.421-27.689 27.689v39.809h-48.465c-.996-11.47-10.645-20.501-22.369-20.501h-34.04v-30.805c45.57-9.488 79.914-49.958 79.914-98.302s-34.344-88.814-79.914-98.302v-29.239a43.45 43.45 0 0 0 17.991-18.476h79.947l-6.761 25.232c-1.915 7.144-.933 14.606 2.765 21.011s9.67 10.987 16.813 12.901l40.235 10.781c2.391.641 4.794.947 7.16.947zM100.555 44.672c.835 3.257 1.387 5.41.193 9.867-1.192 4.451-2.745 6.037-5.096 8.437-2.966 3.028-6.656 6.798-8.866 15.049-2.211 8.25-.9 13.36.153 17.465.835 3.254 1.387 5.405.194 9.856s-2.746 6.037-5.096 8.437c-2.965 3.027-6.654 6.794-8.863 15.04-2.211 8.251-.9 13.36.153 17.465.835 3.254 1.387 5.404.194 9.855-.724 2.7-1.58 4.344-2.664 5.758l-9.157-2.454c.793-1.678 1.522-3.612 2.135-5.9 2.211-8.25.9-13.36-.153-17.465-.835-3.255-1.387-5.405-.194-9.856 1.191-4.444 2.742-6.029 5.091-8.427 2.966-3.028 6.656-6.797 8.868-15.05 2.211-8.251.899-13.36-.153-17.465-.835-3.254-1.387-5.404-.194-9.855s2.746-6.037 5.096-8.438c2.965-3.029 6.655-6.798 8.865-15.048 2.213-8.257.902-13.368-.151-17.475-.834-3.255-1.386-5.405-.193-9.855.723-2.696 1.579-4.341 2.661-5.753l9.157 2.454c-.792 1.678-1.52 3.61-2.133 5.895-2.21 8.248-.9 13.357.153 17.463zm-66.163 94.32 30.7-114.575c1.518-5.663 6.659-9.407 12.262-9.407.302 0 .605.014.909.036-.753 1.629-1.446 3.495-2.033 5.685-2.211 8.248-.9 13.357.152 17.463.835 3.257 1.387 5.409.192 9.868-1.193 4.451-2.745 6.037-5.096 8.437-2.965 3.029-6.655 6.798-8.865 15.049-2.212 8.251-.9 13.361.153 17.466.835 3.254 1.387 5.404.194 9.854-1.193 4.452-2.746 6.037-5.097 8.437-2.964 3.027-6.653 6.794-8.862 15.04-2.211 8.251-.9 13.36.153 17.465.835 3.254 1.387 5.404.194 9.855-.724 2.7-1.58 4.344-2.665 5.758l-3.321-.89c-6.756-1.81-10.781-8.782-8.97-15.541zm64.749 17.35c-1.599 5.965-7.218 9.796-13.163 9.368.753-1.628 1.446-3.495 2.033-5.685 2.211-8.25.9-13.36-.153-17.465-.835-3.255-1.387-5.405-.194-9.855 1.191-4.444 2.743-6.029 5.092-8.427 2.966-3.028 6.656-6.797 8.867-15.05 2.211-8.251.9-13.36-.153-17.465-.835-3.254-1.387-5.404-.194-9.855s2.746-6.037 5.096-8.438c2.966-3.028 6.656-6.798 8.866-15.049 2.212-8.256.901-13.367-.151-17.474-.835-3.254-1.387-5.405-.194-9.854.723-2.696 1.579-4.341 2.662-5.754l3.316.888a12.604 12.604 0 0 1 7.705 5.912 12.606 12.606 0 0 1 1.268 9.629zm31.997-61.464 2.41-8.995h79.526a43.354 43.354 0 0 0 .001 8.995zM88.097 376.079c1.649 2.93 2.739 4.866 2.739 9.481 0 4.608-1.089 6.542-2.738 9.469-2.079 3.693-4.668 8.288-4.668 16.83s2.589 13.138 4.668 16.831c1.649 2.927 2.738 4.861 2.738 9.469 0 4.609-1.09 6.542-2.738 9.469-2.08 3.691-4.668 8.285-4.668 16.821 0 8.542 2.589 13.138 4.668 16.83 1.649 2.927 2.738 4.861 2.738 9.469 0 2.795-.402 4.605-1.083 6.251h-9.479c.332-1.826.536-3.882.536-6.251 0-8.542-2.589-13.138-4.669-16.83-1.649-2.927-2.738-4.861-2.738-9.469 0-4.601 1.089-6.533 2.736-9.457 2.081-3.693 4.671-8.288 4.671-16.832 0-8.542-2.589-13.138-4.669-16.83-1.648-2.928-2.738-4.861-2.738-9.47 0-4.608 1.089-6.542 2.738-9.469 2.08-3.693 4.669-8.288 4.669-16.83 0-8.548-2.589-13.146-4.67-16.841-1.648-2.928-2.737-4.862-2.737-9.469 0-2.791.401-4.602 1.081-6.246h9.481c-.331 1.825-.534 3.88-.534 6.246-.001 8.54 2.587 13.135 4.666 16.828zM48.6 484.311V365.694c0-6.178 4.44-11.331 10.295-12.455-.306 1.767-.491 3.747-.491 6.012 0 8.54 2.588 13.136 4.667 16.829 1.65 2.93 2.74 4.866 2.74 9.481 0 4.608-1.089 6.542-2.738 9.469-2.08 3.693-4.669 8.288-4.669 16.83s2.589 13.138 4.669 16.831c1.649 2.928 2.738 4.861 2.738 9.469s-1.09 6.542-2.738 9.469c-2.08 3.691-4.669 8.285-4.669 16.821 0 8.542 2.589 13.138 4.669 16.83 1.649 2.928 2.738 4.861 2.738 9.469 0 2.795-.402 4.605-1.083 6.251H61.29c-6.997 0-12.69-5.692-12.69-12.689zm67.033 0c0 6.176-4.437 11.329-10.289 12.455.306-1.768.492-3.749.492-6.017 0-8.542-2.589-13.138-4.668-16.83-1.649-2.927-2.738-4.861-2.738-9.469 0-4.602 1.089-6.533 2.736-9.458 2.08-3.693 4.67-8.288 4.67-16.832 0-8.541-2.589-13.138-4.668-16.83-1.649-2.927-2.738-4.861-2.738-9.47 0-4.608 1.089-6.542 2.738-9.469 2.079-3.693 4.668-8.288 4.668-16.83 0-8.547-2.589-13.145-4.669-16.84-1.648-2.928-2.737-4.862-2.737-9.47 0-2.791.401-4.602 1.081-6.246h3.433c6.997 0 12.689 5.692 12.689 12.689zm15.002-63.808h48.37v8.995h-48.37zm293.274 53.416c-1.649-2.927-2.738-4.861-2.738-9.469 0-4.602 1.089-6.533 2.736-9.458 2.08-3.693 4.67-8.288 4.67-16.832 0-8.541-2.589-13.138-4.668-16.83-1.649-2.927-2.738-4.861-2.738-9.47 0-4.608 1.089-6.542 2.738-9.469 2.079-3.693 4.668-8.288 4.668-16.83 0-8.547-2.589-13.145-4.669-16.84-1.648-2.928-2.737-4.862-2.737-9.47 0-2.791.401-4.602 1.081-6.246h9.48c-.331 1.825-.535 3.88-.535 6.246 0 8.54 2.588 13.136 4.667 16.829 1.65 2.93 2.74 4.866 2.74 9.481 0 4.608-1.089 6.542-2.738 9.469-2.08 3.693-4.669 8.288-4.669 16.83s2.589 13.138 4.669 16.831c1.649 2.928 2.738 4.861 2.738 9.469s-1.09 6.542-2.738 9.469c-2.08 3.691-4.669 8.285-4.669 16.821 0 8.542 2.589 13.138 4.669 16.83 1.649 2.928 2.738 4.861 2.738 9.469 0 2.795-.402 4.605-1.083 6.251h-9.48c.332-1.826.535-3.883.535-6.251.001-8.542-2.588-13.138-4.667-16.83zM463.4 365.694v118.617c0 6.176-4.437 11.329-10.289 12.455.306-1.768.492-3.749.492-6.017 0-8.542-2.589-13.138-4.669-16.83-1.649-2.927-2.738-4.861-2.738-9.469 0-4.601 1.089-6.533 2.736-9.457 2.081-3.693 4.671-8.288 4.671-16.832 0-8.542-2.589-13.138-4.669-16.83-1.648-2.928-2.738-4.861-2.738-9.47 0-4.608 1.089-6.542 2.738-9.469 2.08-3.693 4.669-8.288 4.669-16.83 0-8.548-2.589-13.146-4.67-16.841-1.648-2.928-2.737-4.862-2.737-9.469 0-2.791.401-4.601 1.081-6.246h3.434c6.997-.001 12.689 5.691 12.689 12.688zm-67.033 0c0-6.178 4.44-11.332 10.295-12.455-.306 1.767-.491 3.747-.491 6.012 0 8.54 2.588 13.136 4.667 16.828 1.649 2.93 2.739 4.866 2.739 9.481 0 4.608-1.089 6.542-2.738 9.469-2.079 3.693-4.668 8.288-4.668 16.83s2.589 13.138 4.668 16.831c1.649 2.927 2.738 4.861 2.738 9.469 0 4.609-1.09 6.542-2.738 9.469-2.08 3.691-4.668 8.285-4.668 16.821 0 8.542 2.589 13.138 4.668 16.83 1.649 2.927 2.738 4.861 2.738 9.469 0 2.795-.402 4.605-1.083 6.251h-3.438c-6.997 0-12.689-5.692-12.689-12.689v-71.308zm-15 63.803h-48.374v-8.995h48.374zm-119.873-44.495h-10.99V356.15c1.82.099 3.652.152 5.496.152 1.843 0 3.675-.054 5.494-.152zm79.914-129.107c0 47.094-38.314 85.407-85.408 85.407s-85.407-38.313-85.407-85.407 38.313-85.407 85.407-85.407 85.408 38.313 85.408 85.407zM261.494 155.64a101.086 101.086 0 0 0-5.494-.152c-1.844 0-3.676.054-5.496.152v-22.462c1.801.23 3.633.362 5.496.362 1.862 0 3.693-.132 5.494-.362zM256 118.54c-15.528 0-28.161-12.633-28.161-28.161S240.472 62.217 256 62.217s28.161 12.633 28.161 28.161S271.528 118.54 256 118.54zm153.47 40.907c.793-1.678 1.522-3.612 2.134-5.9 2.212-8.251.9-13.361-.153-17.466-.835-3.254-1.387-5.404-.194-9.854 1.191-4.444 2.743-6.029 5.092-8.427 2.965-3.028 6.656-6.797 8.867-15.05 2.211-8.251.9-13.36-.153-17.465-.835-3.254-1.387-5.404-.194-9.855s2.746-6.037 5.097-8.438c2.965-3.028 6.654-6.798 8.865-15.048 2.213-8.257.902-13.368-.151-17.475-.834-3.255-1.386-5.405-.193-9.855.723-2.696 1.579-4.341 2.661-5.753l9.157 2.454c-.792 1.677-1.52 3.61-2.133 5.895-2.211 8.248-.9 13.357.152 17.463.835 3.257 1.387 5.409.192 9.868-1.193 4.451-2.745 6.037-5.096 8.437-2.965 3.029-6.655 6.798-8.865 15.049-2.211 8.25-.9 13.36.153 17.465.835 3.254 1.387 5.405.194 9.856s-2.746 6.037-5.097 8.436c-2.964 3.027-6.653 6.794-8.862 15.04-2.211 8.251-.9 13.36.153 17.465.835 3.254 1.387 5.404.194 9.855-.724 2.7-1.58 4.344-2.664 5.758zm68.138-117.68-30.7 114.575c-1.599 5.965-7.219 9.796-13.163 9.368.754-1.628 1.446-3.495 2.033-5.685 2.211-8.25.9-13.36-.153-17.465-.835-3.255-1.387-5.405-.194-9.856 1.191-4.444 2.742-6.029 5.091-8.427 2.966-3.029 6.657-6.797 8.868-15.05 2.211-8.251.9-13.36-.153-17.465-.835-3.254-1.387-5.404-.194-9.855s2.746-6.037 5.096-8.438c2.965-3.029 6.655-6.798 8.865-15.048 2.213-8.257.902-13.368-.151-17.475-.834-3.255-1.386-5.405-.193-9.855.723-2.696 1.578-4.341 2.661-5.753l3.316.889c6.757 1.809 10.782 8.781 8.971 15.54zm-94.181 106.854a12.606 12.606 0 0 1-1.268-9.629l30.7-114.575c1.518-5.663 6.658-9.407 12.261-9.407.302 0 .605.014.91.036-.753 1.629-1.446 3.495-2.033 5.685-2.211 8.248-.9 13.357.152 17.463.835 3.257 1.387 5.409.192 9.868-1.193 4.451-2.746 6.037-5.096 8.437-2.965 3.029-6.655 6.798-8.866 15.049-2.211 8.25-.9 13.36.153 17.465.835 3.254 1.387 5.405.194 9.856-1.193 4.452-2.746 6.037-5.097 8.437-2.964 3.027-6.653 6.794-8.862 15.039-2.211 8.251-.899 13.36.153 17.465.835 3.254 1.387 5.404.193 9.856-.723 2.7-1.579 4.343-2.663 5.757l-3.321-.89a12.603 12.603 0 0 1-7.702-5.912z"/><path xmlns="http://www.w3.org/2000/svg" d="M338.997 162.291a7.5 7.5 0 0 0 0 10.606c22.171 22.17 34.379 51.645 34.379 82.997 0 31.353-12.209 60.828-34.379 82.998a7.5 7.5 0 0 0 5.304 12.803 7.478 7.478 0 0 0 5.304-2.197c25.003-25.003 38.772-58.245 38.772-93.604s-13.769-68.602-38.772-93.604a7.502 7.502 0 0 0-10.608.001zM167.699 351.696a7.5 7.5 0 0 0 5.304-12.803c-45.765-45.765-45.765-120.23 0-165.995a7.5 7.5 0 0 0-10.607-10.606c-51.613 51.613-51.613 135.594 0 187.208a7.479 7.479 0 0 0 5.303 2.196zm50.861-123.39c-.4-1.315-1.298-2.285-2.665-2.884-1.35-.59-2.859-.889-4.488-.889-1.574 0-3.056.299-4.405.889-1.37.6-2.267 1.57-2.665 2.884l-16.165 52.681c-.115.458-.171.742-.171.868 0 .698.234 1.344.697 1.921a6.063 6.063 0 0 0 1.709 1.453 9.411 9.411 0 0 0 2.249.934 8.82 8.82 0 0 0 2.337.339c.965 0 1.787-.174 2.444-.517.671-.351 1.129-.94 1.36-1.751l3.157-11.047h18.987l3.157 11.047c.231.812.688 1.401 1.36 1.751.656.343 1.479.517 2.444.517.734 0 1.52-.114 2.337-.339a8.499 8.499 0 0 0 2.252-.978 7.23 7.23 0 0 0 1.704-1.449 2.854 2.854 0 0 0 .699-1.881c0-.078-.018-.252-.173-.874zm-.033 36.089h-14.241l7.121-25.126zm23.423-38.463c-1.013.608-1.526 1.503-1.526 2.662v54.434c0 .931.453 1.752 1.347 2.443.883.685 2.078 1.031 3.552 1.031h17.754c2.349 0 4.572-.312 6.61-.927a13.328 13.328 0 0 0 5.367-3.085c1.513-1.428 2.721-3.289 3.59-5.531.867-2.236 1.307-5.04 1.307-8.336v-1.759c0-2.068-.213-3.883-.633-5.393-.421-1.514-1.019-2.823-1.777-3.891a10.387 10.387 0 0 0-2.755-2.67 18.917 18.917 0 0 0-3.263-1.702c2.121-.969 3.809-2.551 5.02-4.706 1.261-2.241 1.9-5.135 1.9-8.603 0-2.962-.483-5.446-1.437-7.383-.955-1.936-2.223-3.473-3.767-4.569-1.544-1.094-3.363-1.862-5.407-2.282a31.623 31.623 0 0 0-6.348-.63h-16.163c-1.245.001-2.378.303-3.371.897zm9.528 22.887v-13.986h9.17c2.076 0 3.722.621 4.893 1.846 1.173 1.226 1.767 2.93 1.767 5.063 0 2.082-.54 3.802-1.605 5.114-1.059 1.303-2.73 1.963-4.97 1.963zm0 27.886V257.61h9.338c2.523 0 4.509.651 5.902 1.935 1.391 1.282 2.096 3.575 2.096 6.817v1.34c0 3.134-.706 5.443-2.1 6.864-1.392 1.42-3.376 2.14-5.898 2.14h-9.338zm38.585 7.184c3.871 2.25 8.471 3.231 12.911 3.353 4.47.123 9.098-.629 12.986-2.944 7.433-4.426 9.856-14.414 6.948-22.314-1.44-3.911-4.547-7.048-7.993-9.268-3.908-2.517-8.441-3.78-12.529-5.95-1.719-.912-3.787-2.055-4.707-3.853-.849-1.658-.738-3.842.255-5.417 2.109-3.344 7.089-3.576 10.587-3.242 1.978.189 3.897.804 5.688 1.652 1.864.882 3.83 2.216 5.808.785 1.607-1.163 2.537-3.439 2.473-5.392-.066-2.019-1.48-3.254-3.139-4.163-3.769-2.065-8.402-2.481-12.626-2.519-4.543-.041-9.34.833-13.268 3.205-3.522 2.127-6.21 5.58-7.076 9.633-.83 3.884-.58 8.507 1.485 11.986 2.263 3.813 5.909 6.472 9.846 8.368 4.152 2 8.667 3.398 12.248 6.415 1.464 1.234 2.528 2.66 2.817 4.593.265 1.772.004 3.747-1.084 5.213-2.393 3.226-7.68 3.647-11.28 2.865-1.946-.423-3.77-1.441-5.366-2.611-1.589-1.165-3.314-3.327-5.386-3.512-1.974-.176-3.588 1.55-4.417 3.165-.971 1.892-.992 3.875.117 5.707 1.099 1.821 2.888 3.193 4.702 4.245z"/></svg>