<svg xmlns="http://www.w3.org/2000/svg" width="512" height="512" viewBox="0 0 64 64"><path xmlns="http://www.w3.org/2000/svg" d="M6 52h20v5H6zM32 2h8v28h-8z" fill="currentColor" data-original="currentColor"/><path xmlns="http://www.w3.org/2000/svg" d="M51.417 38.656C53.013 37.925 55 37.016 55 35h-2c0 .679-1.001 1.19-2.416 1.838-1.597.731-3.584 1.641-3.584 3.657 0 2.017 1.987 2.927 3.583 3.659 1.415.648 2.417 1.16 2.417 1.84 0 .682-1.002 1.194-2.417 1.843-1.597.732-3.583 1.643-3.583 3.66s1.986 2.928 3.583 3.661C51.998 55.807 53 56.318 53 57h2c0-2.017-1.986-2.928-3.583-3.661C50.002 52.69 49 52.179 49 51.497s1.002-1.193 2.417-1.842C53.013 48.922 55 48.011 55 45.994s-1.987-2.927-3.583-3.659c-1.415-.648-2.417-1.16-2.417-1.84s1.002-1.191 2.417-1.839zM43.417 53.339C42.002 52.69 41 52.179 41 51.497s1.002-1.193 2.417-1.842C45.013 48.922 47 48.011 47 45.994s-1.987-2.927-3.583-3.659c-1.415-.648-2.417-1.16-2.417-1.84 0-.679 1.002-1.19 2.417-1.838C45.013 37.925 47 37.016 47 35h-2c0 .679-1.001 1.19-2.416 1.838-1.597.731-3.584 1.641-3.584 3.657 0 2.017 1.987 2.927 3.583 3.659 1.415.648 2.417 1.16 2.417 1.84 0 .682-1.002 1.194-2.417 1.843-1.597.732-3.583 1.643-3.583 3.66s1.986 2.928 3.583 3.661C43.998 55.807 45 56.318 45 57h2c0-2.017-1.986-2.928-3.583-3.661zM35.417 53.339C34.002 52.69 33 52.179 33 51.497s1.002-1.193 2.417-1.842C37.013 48.922 39 48.011 39 45.994s-1.987-2.927-3.583-3.659c-1.415-.648-2.417-1.16-2.417-1.84 0-.679 1.002-1.19 2.417-1.838C37.013 37.925 39 37.016 39 35h-2c0 .679-1.001 1.19-2.416 1.838-1.597.731-3.584 1.641-3.584 3.657 0 2.017 1.987 2.927 3.583 3.659 1.415.648 2.417 1.16 2.417 1.84 0 .682-1.002 1.194-2.417 1.843-1.597.732-3.583 1.643-3.583 3.66s1.986 2.928 3.583 3.661C35.998 55.807 37 56.318 37 57h2c0-2.017-1.986-2.928-3.583-3.661zM35 25h2v2h-2zM35 21h2v2h-2zM35 17h2v2h-2zM35 13h2v2h-2zM35 9h2v2h-2zM35 5h2v2h-2zM40 9h15v2H40zM27 5h5v2h-5zM40 17h5v2h-5zM17 13h15v2H17zM40 25h11v2H40zM25 21h7v2h-7z" data-original="#000000"/><path xmlns="http://www.w3.org/2000/svg" d="M58.16 1H13.84a4.845 4.845 0 00-4.822 5.242l1.593 19.115A2.992 2.992 0 009 28v5.379A7.44 7.44 0 003.544 31 2.543 2.543 0 001 33.535c0 .502.147.988.426 1.406l1.029 1.543a4.47 4.47 0 01.712 1.916l.644 5.143a6.998 6.998 0 001.346 3.333L7 49.333V51H5v12h22V51h-2v-1.764l1.261-2.521c.483-.967.739-2.05.739-3.132V31h29.467c2.498 0 4.616-1.95 4.822-4.438l1.693-20.32A4.845 4.845 0 0058.16 1zM25 61H7v-8h18zm0-17.417c0 .772-.183 1.545-.528 2.236L23 48.764V51H9v-2.333l-2.244-2.992a5.003 5.003 0 01-.961-2.38l-.644-5.143a6.472 6.472 0 00-1.032-2.777L3.09 33.832A.534.534 0 013.544 33 5.462 5.462 0 019 38.457V40h2V28a1.001 1.001 0 012 0v6h2V24a1.001 1.001 0 012 0v10h2v-7a1.001 1.001 0 012 0v7h2v-4a1.001 1.001 0 012 0zM56.467 29H26.816A2.996 2.996 0 0024 27c-.352 0-.686.072-1 .184V27h9v-2h-9.78A2.983 2.983 0 0020 24c-.352 0-.686.072-1 .184V24c0-.352-.072-.686-.184-1H23v-2h-7c-1.654 0-3 1.346-3 3v1.184c-.134-.048-.267-.096-.409-.125L12.086 19H32v-2H11.92l-.167-2H15v-2h-3.413l-.167-2H32V9H11.253l-.167-2H25V5H11.141a2.835 2.835 0 012.698-2h44.32c1.271 0 2.337.846 2.698 2H40v2h20.913l-.167 2H57v2h3.58l-.167 2H40v2h20.247l-.167 2H47v2h12.913l-.167 2H40v2h19.58l-.167 2H53v2h6.172a2.855 2.855 0 01-2.705 2z" data-original="#000000"/></svg>