<svg xmlns="http://www.w3.org/2000/svg" viewBox="0 0 477.867 477.867" style="enable-background:new 0 0 477.867 477.867" xml:space="preserve"><path d="M119.467 0h-102.4C7.641 0 0 7.641 0 17.067v102.4c0 9.426 7.641 17.067 17.067 17.067h102.4c9.426 0 17.067-7.641 17.067-17.067v-102.4C136.533 7.641 128.892 0 119.467 0zM102.4 102.4H34.133V34.133H102.4V102.4zM290.133 0h-102.4c-9.426 0-17.067 7.641-17.067 17.067v102.4c0 9.426 7.641 17.067 17.067 17.067h102.4c9.426 0 17.067-7.641 17.067-17.067v-102.4C307.2 7.641 299.559 0 290.133 0zm-17.066 102.4H204.8V34.133h68.267V102.4zM460.8 0H358.4c-9.426 0-17.067 7.641-17.067 17.067v102.4c0 9.426 7.641 17.067 17.067 17.067h102.4c9.426 0 17.067-7.641 17.067-17.067v-102.4C477.867 7.641 470.226 0 460.8 0zm-17.067 102.4h-68.267V34.133h68.267V102.4zM119.467 170.667h-102.4C7.641 170.667 0 178.308 0 187.733v102.4c0 9.426 7.641 17.067 17.067 17.067h102.4c9.426 0 17.067-7.641 17.067-17.067v-102.4c-.001-9.425-7.642-17.066-17.067-17.066zm-17.067 102.4H34.133V204.8H102.4v68.267zM290.133 170.667h-102.4c-9.426 0-17.067 7.641-17.067 17.067v102.4c0 9.426 7.641 17.067 17.067 17.067h102.4c9.426 0 17.067-7.641 17.067-17.067v-102.4c0-9.426-7.641-17.067-17.067-17.067zm-17.066 102.4H204.8V204.8h68.267v68.267zM460.8 170.667H358.4c-9.426 0-17.067 7.641-17.067 17.067v102.4c0 9.426 7.641 17.067 17.067 17.067h102.4c9.426 0 17.067-7.641 17.067-17.067v-102.4c0-9.426-7.641-17.067-17.067-17.067zm-17.067 102.4h-68.267V204.8h68.267v68.267zM119.467 341.333h-102.4C7.641 341.333 0 348.974 0 358.4v102.4c0 9.426 7.641 17.067 17.067 17.067h102.4c9.426 0 17.067-7.641 17.067-17.067V358.4c-.001-9.426-7.642-17.067-17.067-17.067zm-17.067 102.4H34.133v-68.267H102.4v68.267zM290.133 341.333h-102.4c-9.426 0-17.067 7.641-17.067 17.067v102.4c0 9.426 7.641 17.067 17.067 17.067h102.4c9.426 0 17.067-7.641 17.067-17.067V358.4c0-9.426-7.641-17.067-17.067-17.067zm-17.066 102.4H204.8v-68.267h68.267v68.267zM460.8 341.333H358.4c-9.426 0-17.067 7.641-17.067 17.067v102.4c0 9.426 7.641 17.067 17.067 17.067h102.4c9.426 0 17.067-7.641 17.067-17.067V358.4c0-9.426-7.641-17.067-17.067-17.067zm-17.067 102.4h-68.267v-68.267h68.267v68.267z"/></svg>