<svg xmlns="http://www.w3.org/2000/svg" viewBox="0 0 500.94 496"><title>body-repair</title><path d="M38.12,274.18h0a32.6,32.6,0,0,1-15.6-3.74C-.86,257.66-4.92,232.67,5.22,214.92l27.83-48.71a8,8,0,0,1,13.89,0l27.83,48.71a39.18,39.18,0,0,1-5.91,46.92C60.93,270.1,49.57,274.18,38.12,274.18Z" transform="translate(0 -2.47)" fill="currentColor"/><polygon points="313.18 344.83 339.26 353.52 358.66 324.44 345.34 315.56 332.74 334.48 310.82 327.17 296 337.06 296 320 280 320 280 364.18 250.97 352.57 245.03 367.43 252.71 370.5 245.26 381.69 214.42 366.26 194.34 386.34 205.66 397.66 217.58 385.74 250.74 402.31 267.9 376.58 280 381.42 280 416 176 416 176 432 320 432 320 416 296 416 296 356.28 313.18 344.83"/><path d="M48,354.47H32a40,40,0,0,1,40-40v16A24,24,0,0,0,48,354.47Z" transform="translate(0 -2.47)"/><path d="M493.8,307.93,460.14,235a56.16,56.16,0,0,0-50.85-32.54H226.5a71.49,71.49,0,0,0-50.9,21.09l-58.91,58.91H72a72.09,72.09,0,0,0-72,72v56a24,24,0,0,0,24,24H48v-16H24a8,8,0,0,1-8-8v-56a56.07,56.07,0,0,1,56-56h51.31l63.6-63.6a55.64,55.64,0,0,1,39.59-16.4H409.29a40.1,40.1,0,0,1,36.31,23.24l33.66,72.92A7.91,7.91,0,0,1,480,318v12.49H464v16h16v16H464v16h16v32a8,8,0,0,1-8,8H448v16h24a24,24,0,0,0,24-24V318A24.39,24.39,0,0,0,493.8,307.93Z" transform="translate(0 -2.47)"/><rect x="216" y="320" width="32" height="16"/><path d="M112,498.47a72,72,0,1,1,72-72A72.08,72.08,0,0,1,112,498.47Z" transform="translate(0 -2.47)" fill="currentColor"/><path d="M112,458.47a32,32,0,1,1,32-32A32,32,0,0,1,112,458.47Zm0-48a16,16,0,1,0,16,16A16,16,0,0,0,112,410.47Z" transform="translate(0 -2.47)"/><path d="M384,498.47a72,72,0,1,1,72-72A72.08,72.08,0,0,1,384,498.47Z" transform="translate(0 -2.47)" fill="currentColor"/><path d="M384,458.47a32,32,0,1,1,32-32A32,32,0,0,1,384,458.47Zm0-48a16,16,0,1,0,16,16A16,16,0,0,0,384,410.47Z" transform="translate(0 -2.47)"/><path d="M457.88,306.47H400v-16h32.86l-16.32-35.35a8,8,0,0,0-7.25-4.65H226.5a24.11,24.11,0,0,0-17,7l-33,33H384v16H137.94l60.28-60.29a40.31,40.31,0,0,1,28.28-11.71H409.29a24.08,24.08,0,0,1,21.79,13.95Z" transform="translate(0 -2.47)"/><path d="M432,58.47h68.94l-24-48H412.69l-24,24H174.46a56.23,56.23,0,0,1-35-12.27L114.81,2.47H0v144H114.81l24.66-19.73a56.23,56.23,0,0,1,35-12.27H388.69l24,24h64.25l24-48H432Zm-328,72H88v-112h16Zm-88-16H56v-16H16v-16H56v-16H16v-16H56v-16H16v-16H72v112H16Zm459.06-8-8,16H419.31l-24-24H174.46a72.28,72.28,0,0,0-45,15.78L120,121.82V27.12l9.47,7.58a72.31,72.31,0,0,0,45,15.77H395.31l24-24h47.75l8,16H432a16,16,0,0,0-16,16v32a16,16,0,0,0,16,16Z" transform="translate(0 -2.47)"/><rect x="136" y="64" width="40" height="16"/><rect x="192" y="64" width="208" height="16"/></svg>