<svg xmlns="http://www.w3.org/2000/svg" width="512" height="512" viewBox="0 0 496 496"><g xmlns="http://www.w3.org/2000/svg" fill="currentColor"><path d="M32 208h96v96H32zm0 0M32 344h96v96H32zm0 0M240 160H32V80h208zm0 0" fill="currentColor"/></g><path xmlns="http://www.w3.org/2000/svg" d="M352.504 256c4.754 0 9.351 1.39 13.312 4.031l55.871 37.25A39.954 39.954 0 00443.88 304H496v-16h-52.113c-4.75 0-9.36-1.39-13.32-4.031L408 268.922V0H104v48H0v448h304v-48h104v-67.305c.504-.12 1.023-.16 1.527-.28l37.215-9.302A104.13 104.13 0 01472 368h24v-16h-24c-9.809 0-19.617 1.207-29.137 3.586l-37.215 9.3c-19.128 4.778-39.488 4-58.175-2.23l-13.48-4.496A119.95 119.95 0 00296 352h-69.809c0-13.23 10.77-24 24-24h88c13.235 0 24-10.77 24-24 0-12.273-9.296-22.305-21.191-23.719L347.566 256zm-10.106 121.832A119.756 119.756 0 00380.391 384c3.882 0 7.754-.336 11.609-.71V432h-88v-26.168c2.809-3.238 4.984-7.07 6.152-11.406l6.551-24.266c4.121.84 8.207 1.84 12.219 3.184zm-41.726-9.648l-5.961 22.062A13.213 13.213 0 01281.977 400h-2.594c-7.27 0-13.184-5.91-13.184-13.184 0-1.168.153-2.32.457-3.441L270.81 368H296c1.559 0 3.113.121 4.672.184zM254.23 368l-3.023 11.191a29.13 29.13 0 00-1.008 7.625c0 10.817 5.985 20.168 14.746 25.207l-2.511 10.032 15.52 3.883L280.44 416h1.536c2.062 0 4.062-.29 6.023-.703V480H16V64h104V16h272v242.258l-17.305-11.54A39.936 39.936 0 00352.504 240h-.617l33.297-123.191a29.13 29.13 0 001.007-7.625C386.191 93.09 373.098 80 357.008 80h-2.594c-13.156 0-24.742 8.871-28.176 21.574L304 183.864V48H136v16h152v176h-16.55c-8.708 0-16.907 2.887-23.763 8H168v16h62.879l-16 16H168v16h30.887l-13.367 13.367c-4.72 4.711-7.32 10.985-7.32 17.664 0 13.77 11.198 24.969 24.976 24.969 2.465 0 4.84-.473 7.144-1.16-.008.39-.12.762-.12 1.16 0 8.824 7.175 16 16 16zm61.625-56h-29.91l33.782-124.992 27.441 9.144zm-61.375-48.977c4.473-4.464 10.657-7.023 16.97-7.023h13.054l-6.527 24.145c-10.122.367-19.61 4.367-26.809 11.566l-41.656 41.656a9.038 9.038 0 01-6.344 2.633c-4.953 0-8.977-4.023-8.977-8.969 0-2.398.938-4.648 2.633-6.343zm8 40c3.024-3.023 6.872-5.086 10.977-6.16L269.367 312h-15.855zm107.254-190.39l-9.796 36.246-27.442-9.145 9.184-33.98c1.558-5.746 6.793-9.754 12.734-9.754h2.594c7.273 0 13.183 5.91 13.183 13.184 0 1.168-.152 2.32-.457 3.449zm-41.414 42.574l27.442 9.145-4.418 16.328-27.442-9.145zM338.191 296c4.41 0 8 3.594 8 8s-3.59 8-8 8h-5.765l4.328-16zm0 0" data-original="#000000"/><path xmlns="http://www.w3.org/2000/svg" d="M64 112h16v16H64zm0 0M96 112h16v16H96zm0 0M128 112h16v16h-16zm0 0M160 112h16v16h-16zm0 0M192 112h16v16h-16zm0 0M165.656 189.656l-11.312-11.312L80 252.688l-10.344-10.344-11.312 11.312L80 275.312zm0 0M154.344 314.344L80 388.688l-10.344-10.344-11.312 11.312L80 411.312l85.656-85.656zm0 0M256 440h16v16h-16zm0 0M152 440h88v16h-88zm0 0M168 216h104v16H168zm0 0" data-original="#000000"/></svg>