<svg height="512" viewBox="0 0 128 128" width="512" xmlns="http://www.w3.org/2000/svg"><path d="m58.745 115.679.222 6.859a3.481 3.481 0 0 0 3.371 3.192c5.349.467 6.7-1.506 6.722-3.332l.06-6.766z" style="fill:#f95877"/><path d="M98.1 95.191c-1.758-2.214-2.046-4.981-3.53-8.273-20.191-8.445-39.817-9.91-58.756-2.906 0 0-4.667 12.526-9.54 15.347-3.274 1.9-4.981 5.572.734 8.657 19.324 10.432 38.853 12.7 59.511 6.157 13.256-4.2 18.226-7.311 18.212-10.645-.005-2.438-3.071-3.86-6.631-8.337z" style="fill:#0b697f"/><path d="M95.686 77.962c-4.361-2.052-8.209-13.3-11.672-18.084C66.8 52.456 52.539 53.921 41.092 63.8c-.126 1.767-3.335 7.407-6.67 10.1s-7.011 5.473-3.591 8.551c3.686 3.317 11.267-.38 21.034 4.531 15.049 7.568 31.667 6.767 42.709-.064 3.214-1.988 5.472-6.904 1.112-8.956z" style="fill:#117a7f"/><path d="M85.639 53.123c-5.13-2.223-5.826-6.811-10.7-12.224-7.406-5.577-14.582-7.112-21.45-3.252-2.907 1.881-5.814 11.115-8.721 15.219s-8.573 4.477-7.011 8.5c2.386 6.145 22.379.845 30.183-1.486s10.431.6 16.074 0 4.954-5.315 1.625-6.757z" style="fill:#249688"/><path d="m65.08 2.974.73 1.48a1.348 1.348 0 0 0 1.014.737l1.634.237a1.347 1.347 0 0 1 .746 2.3l-1.182 1.149a1.344 1.344 0 0 0-.387 1.192l.279 1.627a1.346 1.346 0 0 1-1.954 1.419l-1.46-.768a1.347 1.347 0 0 0-1.253 0l-1.462.768a1.346 1.346 0 0 1-1.954-1.415l.279-1.627a1.345 1.345 0 0 0-.388-1.192L58.54 7.725a1.347 1.347 0 0 1 .747-2.3l1.633-.237a1.348 1.348 0 0 0 1.014-.737l.731-1.48a1.346 1.346 0 0 1 2.415.003z" style="fill:#ffc95c"/><path d="M63.151 18.024c6.413 0 5.411 10.044 13.234 15.816 6.285 4.874-2.46 10.647-11.817 5.346-5.963-3.378-8.383-1.477-11.079-1.539-3.676-.086-4.634-3.592-1.881-5.173 6.328-3.634 7.097-14.45 11.543-14.45z" style="fill:#22aa96"/><circle cx="57.433" cy="26.959" style="fill:#f9c7bb" r="4.505"/><circle cx="77.513" cy="46.433" style="fill:#48d8d0" r="4.505"/><circle cx="71.167" cy="92.354" style="fill:#30bf8f" r="4.505"/><circle cx="33.575" cy="92.354" style="fill:#f9c7bb" r="4.505"/><circle cx="47.758" cy="113.049" style="fill:#48d8d0" r="4.505"/><circle cx="95.846" cy="108.545" style="fill:#f9c7bb" r="4.505"/><circle cx="63.784" cy="61.467" style="fill:#ffc571" r="4.505"/><g style="fill:#ffa1b5"><circle cx="46.534" cy="51.463" r="4.505"/><circle cx="88.2" cy="74.085" r="4.505"/></g></svg>