<svg xmlns="http://www.w3.org/2000/svg" viewBox="0 0 496 496"><path fill="currentColor" d="M392 392h64v64h-64zM216 360h32v128h-32zM48 16h32v112H48z"/><path d="M305.54 368H256v-16h-48v16h-48v32h-48a64 64 0 0 1 0-128h272a112 112 0 0 0 0-224H256v-8a24 24 0 0 0-24-24H128V0H0v144h128v-16h104a24 24 0 0 0 24-24v-8h128a64 64 0 0 1 0 128H112a112 112 0 0 0 0 224h48v32h48v16h48v-16h49.54l40-16H496v-80H345.54ZM240 416h-16v-16h16Zm-16 16h16v16h-16Zm16-64v16h-16v-16ZM112 128H16V16h96Zm128-24a8 8 0 0 1-8 8H128V32h104a8 8 0 0 1 8 8ZM112 432a96 96 0 0 1 0-192h272a80 80 0 0 0 0-160H256V64h128a96 96 0 0 1 0 192H112a80 80 0 0 0 0 160h48v16Zm64 32v-80h32v80Zm48 16v-16h16v16Zm32-96h40v48h16v-44.18l24 9.6v53.16l-24 9.6V448h-16v16h-40Zm128 64h-32v-48h32Zm16-48h48v48h-48Zm80 48h-16v-48h16Z"/><path d="M32 96h64v16H32zM32 32h64v16H32zM32 64h64v16H32z"/></svg>