<svg height="512" viewBox="0 0 64 64" width="512" xmlns="http://www.w3.org/2000/svg"><path d="M22.142 4.929C18.237 1.024 11.905 1.024 8 4.929l5.657 5.657a2 2 0 0 1 2.828 0zM37 33h-9.027c-.833.62-1.854 1-2.973 1s-2.14-.38-2.973-1H9c-1.103 0-2 .897-2 2v14c0 1.103.897 2 2 2h28c1.103 0 2-.897 2-2V35c0-1.103-.897-2-2-2z" fill="currentColor"/><path d="M50 1H34.166a12.959 12.959 0 0 0-12.823 10.863l-.215 1.292-4.5.9A7.02 7.02 0 0 0 11 20.919V26c0 1.13.391 2.162 1.026 3H8c-2.757 0-5 2.243-5 5v19.184A2.996 2.996 0 0 0 1 56c0 3.859 3.14 7 7 7h30c3.86 0 7-3.141 7-7a2.996 2.996 0 0 0-2-2.816V34c0-1.13-.391-2.162-1.026-3h3.376c.826 2.327 3.043 4 5.65 4s4.824-1.673 5.65-4H58c2.757 0 5-2.243 5-5V14c0-7.168-5.832-13-13-13zM22.873 14.845l.442-2.653A10.966 10.966 0 0 1 34.166 3H50c6.065 0 11 4.935 11 11v11h-3.802a8.139 8.139 0 0 0 1.79-5.094l-.013-5.958A9.427 9.427 0 0 0 49.561 5H34.198c-4.415 0-8.274 3.282-9.179 7.804L25.002 23H25c-1.771 0-3.36.776-4.46 2H13v-2h2c2.206 0 4-1.794 4-4v-3.38zM46.54 25H43V15h13.979l.004 2H53v2h3.987l.002.91a6.16 6.16 0 0 1-2.038 4.586A5.97 5.97 0 0 0 51 23c-1.771 0-3.36.776-4.46 2zM25 25c2.206 0 4 1.794 4 4s-1.794 4-4 4-4-1.794-4-4 1.794-4 4-4zM49.561 7a7.424 7.424 0 0 1 7.287 6H43V7zM41 13h-6.556c-.694-1.19-1.97-2-3.444-2h-3.229c1.283-2.407 3.722-4 6.427-4H41zm-14 .102c.007-.035.018-.068.026-.102H31c1.103 0 2 .897 2 2h-6zm0 10.248V17h6c1.103 0 2-.897 2-2h6v2h-4v2h4v6H29.46A6.016 6.016 0 0 0 27 23.35zm-10-7.329V19c0 1.103-.897 2-2 2h-2v-.081a5.013 5.013 0 0 1 4-4.898zM13.184 27h6.166a5.976 5.976 0 0 0-.35 2h-3a2.996 2.996 0 0 1-2.816-2zM38 61H8c-2.757 0-5-2.243-5-5 0-.552.449-1 1-1h12.382l2 4h9.236l2-4H42c.551 0 1 .448 1 1 0 2.757-2.243 5-5 5zm-19.382-6h8.764l-1 2h-6.764zM41 34v19H5V34c0-1.654 1.346-3 3-3h11.35c.826 2.327 3.043 4 5.65 4s4.824-1.673 5.65-4H38c1.654 0 3 1.346 3 3zm-3-5h-7c0-.702-.128-1.373-.35-2h14.7a5.976 5.976 0 0 0-.35 2zm13 4c-2.206 0-4-1.794-4-4s1.794-4 4-4 4 1.794 4 4-1.794 4-4 4zm7-4h-1c0-.702-.128-1.373-.35-2h4.166A2.996 2.996 0 0 1 58 29zM12.95 9.879l1.414 1.414a1.003 1.003 0 0 1 1.415 0l1.414-1.414a3.002 3.002 0 0 0-4.243 0zM20.021 7.05C18.699 5.728 16.941 5 15.071 5s-3.628.728-4.95 2.05l1.414 1.414A4.97 4.97 0 0 1 15.071 7c1.335 0 2.591.52 3.535 1.464z"/><path d="m21.435 5.636 1.414-1.414c-4.289-4.288-11.267-4.289-15.556 0l1.414 1.414c3.508-3.509 9.219-3.51 12.728 0zM7 57h2v2H7zM11 57h2v2h-2zM26.102 35.562 22 43.764 20.618 41h-3.802A2.996 2.996 0 0 0 14 39c-1.654 0-3 1.346-3 3s1.346 3 3 3a2.996 2.996 0 0 0 2.816-2h2.566L22 48.236l3.898-7.797L27.323 44H39v-2H28.677zM14 43a1.001 1.001 0 0 1 0-2 1.001 1.001 0 0 1 0 2z"/></svg>