<svg xmlns="http://www.w3.org/2000/svg" viewBox="0 0 496 496" style="enable-background:new 0 0 496 496" xml:space="preserve"><path fill="currentColor" d="M336 228h-64c-4.424 0-8 3.576-8 8v48h80v-48c0-4.424-3.576-8-8-8zM136 180v32h16c13.256 0 24 10.744 24 24v80c0 13.256-10.744 24-24 24h-16v40H96c-8.84 0-16-7.16-16-16V196c0-8.84 7.16-16 16-16h40z"/><path d="M488.112 219.96 486.76 212h-56.216l1.792 10.616c3.744 22.472 6.12 45.776 7.08 69.384H408v-80c0-13.232-10.768-24-24-24h-16c-4.416 0-8-3.592-8-8v-16c0-13.232-10.768-24-24-24h-64v-24h96V68H128v48h96v24h-54.112c-9.152 0-17.376 5.08-21.472 13.264l-7.16 14.312a7.938 7.938 0 0 1-7.144 4.424H96c-13.232 0-24 10.768-24 24v56H48v-64H0v176h48v-64h24v64c0 13.232 10.768 24 24 24h41.376a8.06 8.06 0 0 1 5.656 2.344l30.624 30.624c4.528 4.536 10.56 7.032 16.968 7.032H384c13.232 0 24-10.768 24-24v-64h31.408c-.808 18.664-2.504 37.168-5.08 55.112L430.776 420h56.168l3.232-22.624A582.72 582.72 0 0 0 496 315.344c0-31.864-2.656-63.952-7.888-95.384zM216 308v-16h176v16H216zm16 72v32h-16v-88h16v40h16v-40h16v88h-16v-32h-16zm48-56h16v88h-16v-88zm32 0h16v88h-16v-88zm32-160v16c0 13.232 10.768 24 24 24h16c4.416 0 8 3.592 8 8v64H216v-72h112v-16H216v-32h120c4.416 0 8 3.592 8 8zm-200-64V84h208v16h-96v40h-16v-40h-96zM32 284v64H16V204h16v64h40v16H32zm152.968 125.656-30.624-30.624c-4.528-4.536-10.56-7.032-16.968-7.032H96c-4.416 0-8-3.592-8-8V196c0-4.408 3.584-8 8-8h38.112c9.152 0 17.376-5.08 21.472-13.264l7.16-14.312a7.938 7.938 0 0 1 7.144-4.424H200v256h-9.376a8.075 8.075 0 0 1-5.656-2.344zM384 412h-8v-56h-16v56h-16v-88h16v16h16v-16h16v80c0 4.408-3.584 8-8 8zm90.328-16.888L473.064 404h-23.832l.944-6.624c3.024-21.168 4.88-43.088 5.528-65.144l.232-8.232H408v-16h47.896l-.216-8.216c-.648-24.352-2.768-48.456-6.296-71.784H473.2a566.23 566.23 0 0 1 6.8 87.344c0 26.6-1.904 53.44-5.672 79.768z"/><path d="M120 268h16v16h-16zM232 244h16v16h-16zM360 244h16v16h-16z"/></svg>