<svg height="496pt" viewBox="-48 0 496 496" width="496pt" xmlns="http://www.w3.org/2000/svg"><path d="m376 208h-160v40h144v96h-32v48h-32v48h-48v48h-48v-96h48v-48h32v-48h-144v-48h48v-40h-160c-13.230469 0-24 10.769531-24 24v240c0 13.230469 10.769531 24 24 24h352c13.230469 0 24-10.769531 24-24v-240c0-13.230469-10.769531-24-24-24zm-288 248h-48v-128h48zm16-160h-64v-48h64zm0 0" fill="currentColor"/><path d="m32 304h80v-64h-80zm16-48h48v32h-48zm0 0"/><path d="m224 240v-48h12.527344l39.617187-66.03125c7.75-12.921875 11.855469-27.722656 11.855469-42.792969 0-45.863281-37.3125-83.175781-83.175781-83.175781h-9.640625c-45.871094 0-83.183594 37.3125-83.183594 83.175781 0 15.070313 4.105469 29.871094 11.847656 42.800781l39.625 66.023438h12.527344v48h-48v64h144v32h-32v48h-48v112h64v-48h48v-48h32v-48h32v-112zm48-156.824219c0 5.367188-.753906 10.664063-2.007812 15.832031-27.40625-10.617187-45.992188-37.144531-45.992188-67.007812v-13.175781c27.71875 8.28125 48 33.976562 48 64.351562zm-96-64.351562v13.175781c0 29.863281-18.585938 56.390625-45.992188 67.007812-1.253906-5.167968-2.007812-10.464843-2.007812-15.832031 0-30.375 20.28125-56.070312 48-64.351562zm-38.433594 98.917969c-.726562-1.214844-1.269531-2.511719-1.917968-3.757813 33.582031-12.960937 56.351562-45.425781 56.351562-81.984375v-15.839844c1.0625-.046875 2.105469-.160156 3.175781-.160156h9.640625c1.078125 0 2.121094.113281 3.183594.160156v15.839844c0 36.558594 22.769531 69.023438 56.351562 81.976562-.648437 1.246094-1.191406 2.542969-1.917968 3.757813l-34.960938 58.265625h-54.9375zm70.433594 74.257812v96h-16v-96zm-64 64h32v32h-32zm208 80h-32v48h-32v48h-48v48h-32v-80h48v-48h32v-64h-64v-32h128zm0 0"/><path d="m32 464h64v-144h-64zm16-16v-16h32v16zm32-48v16h-32v-16zm-32-16v-16h32v16zm32-48v16h-32v-16zm0 0"/></svg>