<svg height="512" viewBox="0 0 62 45" width="512" xmlns="http://www.w3.org/2000/svg"><path d="M60 14H24C10.767 14 0 24.767 0 38v5c0 1.103.897 2 2 2h46c7.72 0 14-6.28 14-14V16c0-1.103-.897-2-2-2zm-3 16c0 5.523-4.477 10-10 10H6a1 1 0 0 1-1-1c0-11.046 8.954-20 20-20h31a1 1 0 0 1 1 1z" fill="currentColor"/><path d="M32 25c0-1.654-1.346-3-3-3s-3 1.346-3 3 1.346 3 3 3 3-1.346 3-3zm-4 0a1.001 1.001 0 1 1 1 1c-.551 0-1-.448-1-1zM17 29c-1.654 0-3 1.346-3 3s1.346 3 3 3 3-1.346 3-3-1.346-3-3-3zm0 4a1.001 1.001 0 0 1 0-2 1.001 1.001 0 0 1 0 2zM43 26c-1.654 0-3 1.346-3 3s1.346 3 3 3 3-1.346 3-3-1.346-3-3-3zm0 4a1.001 1.001 0 0 1 0-2 1.001 1.001 0 0 1 0 2z"/><path d="M56 18H25C13.42 18 4 27.421 4 39c0 1.103.897 2 2 2h41c6.065 0 11-4.935 11-11V20c0-1.103-.897-2-2-2zM43 38a8.974 8.974 0 0 1-8.951-8.165 6.971 6.971 0 0 0 1.8-6.275A8.997 8.997 0 0 1 43 20c4.962 0 9 4.037 9 9s-4.038 9-9 9zm-17.874-9.843a8.937 8.937 0 0 0-.779-1.337A4.993 4.993 0 0 1 24 25c0-2.757 2.243-5 5-5s5 2.243 5 5-2.243 5-5 5a4.974 4.974 0 0 1-3.874-1.843zM17 39c-3.86 0-7-3.141-7-7s3.14-7 7-7 7 3.141 7 7-3.14 7-7 7zm19.685-19c-.6.421-1.153.911-1.663 1.45A7.062 7.062 0 0 0 33.889 20zm-14.662 4.536A8.948 8.948 0 0 0 17 23a8.938 8.938 0 0 0-2.969.514 18.863 18.863 0 0 1 10.027-3.466 6.977 6.977 0 0 0-2.035 4.488zM6 39c0-3.182.796-6.179 2.185-8.817A8.983 8.983 0 0 0 11.356 39zm20-7c0-.232-.017-.46-.035-.688a6.997 6.997 0 0 0 6.267-.109A10.962 10.962 0 0 0 38.43 39H22.644A8.983 8.983 0 0 0 26 32zm30-2c0 4.753-3.706 8.647-8.379 8.969C51.381 37.218 54 33.414 54 29c0-3.72-1.861-7.008-4.695-9H56zM30 0h2v12h-2zM35.04 11.668l2-6.003 1.898.632-2 6.003zM40.206 11.406l6-8 1.6 1.2-6 8zM23.058 6.324l1.898-.632 1.999 6.003-1.898.632zM14.2 4.6l1.6-1.2 6 8-1.6 1.2z"/></svg>