<svg height="512" viewBox="0 0 62 62" width="512" xmlns="http://www.w3.org/2000/svg"><path d="M38 27h-9v-5h9zM51 15H40v5h13v-3a2 2 0 0 0-2-2z" fill="currentColor"/><path d="M62 20h-4V7c0-1.654-1.346-3-3-3h-3V3c0-1.654-1.346-3-3-3s-3 1.346-3 3v1h-2V3c0-1.654-1.346-3-3-3s-3 1.346-3 3v1h-2V3c0-1.654-1.346-3-3-3s-3 1.346-3 3v1h-3a2.995 2.995 0 0 0-2.816 2H14c-4.411 0-8 3.586-8 7.995V30H2c-1.103 0-2 .897-2 2v2c0 1.103.897 2 2 2v6h2v7.333L7.5 54h7l3.5-4.667V42h2v-6c1.103 0 2-.897 2-2v-2c0-1.103-.897-2-2-2h-4V16h8v4h-4v6h4v2h4v1c0 1.654 1.346 3 3 3h3v2h-1c-1.654 0-3 1.346-3 3v4c0 1.654 1.346 3 3 3h1v4h2v6h2v8h6v-8h2v-6h2v-4h1c1.654 0 3-1.346 3-3v-4c0-1.654-1.346-3-3-3h-1v-2h3c1.654 0 3-1.346 3-3v-1h4v-2h4zM55 6c.552 0 1 .449 1 1v11h-2v-1a2.996 2.996 0 0 0-2-2.816V6zM31 16h20c.552 0 1 .449 1 1v9H30v-9c0-.551.448-1 1-1zM49 2c.552 0 1 .449 1 1v11h-2V3c0-.551.448-1 1-1zm-3 4v8h-2V6zm-5-4c.552 0 1 .449 1 1v11h-2V3c0-.551.448-1 1-1zm-3 4v8h-2V6zm-5-4c.552 0 1 .449 1 1v11h-2V3c0-.551.448-1 1-1zM8 13.995A6.004 6.004 0 0 1 14 8h10v2h-9c-2.757 0-5 2.243-5 5v15H8zM6 48v-2h10v2zm7.5 4h-5L7 50h8zm2.5-8H6v-2h10zm2-4H4v-4h14zm2.001-6H2v-2h18zM16 14c-1.103 0-2 .897-2 2v14h-2V15c0-1.654 1.346-3 3-3h9v2zm10-7c0-.551.448-1 1-1h3v8.184A2.996 2.996 0 0 0 28 17v1h-2zm-4 17v-2h2v2zm4 2v-6h2v6zm16 34h-2v-6h2zm2-8h-6v-4h6zm2-6H36v-2h10zm4-9v4c0 .551-.448 1-1 1H33c-.552 0-1-.449-1-1v-4c0-.551.448-1 1-1h16c.552 0 1 .449 1 1zm-4-3H36v-2h10zm5-4H31c-.552 0-1-.449-1-1v-1h22v1c0 .551-.448 1-1 1zm5-4h-2v-6h2zm4-2h-2v-2h2z"/></svg>