<svg xmlns="http://www.w3.org/2000/svg" width="512" height="512" style="enable-background:new 0 0 512 512" xml:space="preserve"><g xmlns="http://www.w3.org/2000/svg"><path d="M440 152v48a32 32 0 0 1-32 32v-64a16 16 0 0 0-16-16h-32a16 16 0 0 0-16 16v64h-32v-64a16 16 0 0 0-16-16h-32a16 16 0 0 0-16 16v64h-32v-64a16 16 0 0 0-16-16h-32a16 16 0 0 0-16 16v64h-32v-64a16 16 0 0 0-16-16H72a16 16 0 0 0-16 16v64a32 32 0 0 1-32-32v-48a32 32 0 0 1 32-32h48l-.13-.13L120 104h32l16.13 15.87-.13.13h128l-.13-.13L312 104h32l16.13 15.87-.13.13h48a32 32 0 0 1 32 32z" fill="currentColor"/><path d="M488 384v24H184A128 128 0 0 1 56 280V168a16 16 0 0 1 16-16h32a16 16 0 0 1 16 16v96c0 64 42.98 96 96 96l-45.25-45.25A64 64 0 0 1 152 269.49V168a16 16 0 0 1 16-16h24v104a128 128 0 0 0 128 128z" fill="currentColor"/><g><path d="M216 224h32v16h-32zM312 224h32v16h-32zM120 224h32v16h-32z"/><path d="M488 416H184c-74.99 0-136-61.009-136-136V168a24.027 24.027 0 0 1 24-24h32a24.027 24.027 0 0 1 24 24v96c0 54.043 31.542 79.111 66.665 85.979l-29.572-29.572A71.538 71.538 0 0 1 144 269.49V168a24.027 24.027 0 0 1 24-24h32a24.027 24.027 0 0 1 24 24v101.49a55.643 55.643 0 0 0 16.407 39.6L283.313 352h9.374l-31.594-31.593A71.538 71.538 0 0 1 240 269.49V168a24.027 24.027 0 0 1 24-24h32a24.027 24.027 0 0 1 24 24v101.49a55.643 55.643 0 0 0 16.407 39.6L379.313 352h9.374l-31.594-31.593A71.538 71.538 0 0 1 336 269.49V168a24.027 24.027 0 0 1 24-24h32a24.027 24.027 0 0 1 24 24v101.49a55.643 55.643 0 0 0 16.407 39.6L475.313 352H488a8 8 0 0 1 8 8v48a8 8 0 0 1-8 8zM72 160a8.009 8.009 0 0 0-8 8v112a120.136 120.136 0 0 0 120 120h296v-32h-8a8 8 0 0 1-5.657-2.343l-45.25-45.25A71.538 71.538 0 0 1 400 269.49V168a8.009 8.009 0 0 0-8-8h-32a8.009 8.009 0 0 0-8 8v101.49a55.643 55.643 0 0 0 16.407 39.6l45.25 45.25A8 8 0 0 1 408 368h-32a8 8 0 0 1-5.657-2.343l-45.25-45.25A71.538 71.538 0 0 1 304 269.49V168a8.009 8.009 0 0 0-8-8h-32a8.009 8.009 0 0 0-8 8v101.49a55.643 55.643 0 0 0 16.407 39.6l45.25 45.25A8 8 0 0 1 312 368h-32a8 8 0 0 1-5.657-2.343l-45.25-45.25A71.538 71.538 0 0 1 208 269.49V168a8.009 8.009 0 0 0-8-8h-32a8.009 8.009 0 0 0-8 8v101.49a55.643 55.643 0 0 0 16.407 39.6l45.25 45.25A8 8 0 0 1 216 368c-29.4 0-54.751-9.031-73.3-26.115C122.615 323.388 112 296.457 112 264v-96a8.009 8.009 0 0 0-8-8z"/><path d="M408 240v-16a24.027 24.027 0 0 0 24-24v-48a24.027 24.027 0 0 0-24-24h-48a8 8 0 0 1-6.7-3.625L340.725 112h-25.45L302.7 124.375A8 8 0 0 1 296 128H168a8 8 0 0 1-6.7-3.625L148.725 112h-25.45L110.7 124.375A8 8 0 0 1 104 128H56a24.027 24.027 0 0 0-24 24v48a24.027 24.027 0 0 0 24 24v16a40.045 40.045 0 0 1-40-40v-48a40.045 40.045 0 0 1 40-40h44.462l13.928-13.7A8 8 0 0 1 120 96h32a8 8 0 0 1 5.61 2.3l13.928 13.7h120.924l13.928-13.7A8 8 0 0 1 312 96h32a8 8 0 0 1 5.61 2.3l13.928 13.7H408a40.045 40.045 0 0 1 40 40v48a40.045 40.045 0 0 1-40 40z"/><path d="M128 128h16v16h-16zM320 128h16v16h-16z"/></g></g></svg>