<svg xmlns="http://www.w3.org/2000/svg" viewBox="0 0 496 496"><title>maintenance</title><path d="M448,368H432a24,24,0,0,1-24-24V320h64v24A24,24,0,0,1,448,368Z" transform="translate(-8 -8)" fill="currentColor"/><path d="M384.42,136a88.3,88.3,0,0,0-70.83,35.8l-86,116.72-47.2,6.3A88,88,0,0,0,120,331.7V139.8a72.45,72.45,0,0,0-4-122.72l-9.67-5.6-9.53,47.7L80,70.38,63.19,59.18l-9.53-47.7L44,17.08A72.45,72.45,0,0,0,40,139.8v201a72.45,72.45,0,0,0,4,122.72l9.67,5.6,9.53-47.7L80,410.25l12.25,8.17A23.78,23.78,0,0,0,88,432v16a24,24,0,0,0,24,24h72.6V456H112a8,8,0,0,1-8-8V432a8,8,0,0,1,8-8h66.06V408H120V382a70.63,70.63,0,0,1,1.08-12.14A47.33,47.33,0,0,0,144,376a48.05,48.05,0,0,0,48-48,46.75,46.75,0,0,0-3.78-18.09l48.2-6.42,90-122.19a72.27,72.27,0,0,1,58-29.3H488v16H388.27a48.19,48.19,0,0,0-38.71,19.62l-41,55.95A56,56,0,0,0,272,296v86.05h16V304H488V456H295.4v16H504V136ZM104,407,80,391l-31.19,20.8-6.2,31A57,57,0,0,1,24,400.63a56.23,56.23,0,0,1,28-48.45l4-2.31V130.75l-4-2.31A56.2,56.2,0,0,1,24,80,57.05,57.05,0,0,1,42.6,37.8l6.2,31L80,89.62l31.19-20.8,6.2-31A57,57,0,0,1,136,80a56.23,56.23,0,0,1-28,48.45l-4,2.31V407Zm40-47a31.62,31.62,0,0,1-18.26-5.87,72.3,72.3,0,0,1,46.33-41.19A30.93,30.93,0,0,1,176,328a32,32,0,0,1-32,32Zm176-72H288.81A40.07,40.07,0,0,1,328,256h8a16,16,0,0,1,0,32Zm43.55,0A31.69,31.69,0,0,0,368,272a32,32,0,0,0-32-32h-5l31.48-42.93A32.15,32.15,0,0,1,388.27,184H488V288Z" transform="translate(-8 -8)"/><path d="M276.69,176A19.44,19.44,0,0,1,263,170.34L228.69,136H208a40,40,0,0,1-40-40V48A40,40,0,0,1,208,8H320a40,40,0,0,1,40,40V96a40,40,0,0,1-40,40H296v20.69A19.33,19.33,0,0,1,276.69,176Z" transform="translate(-8 -8)" fill="currentColor"/><path d="M248,115.31,218.34,85.66l11.32-11.32L248,92.69l58.34-58.35,11.32,11.32Z" transform="translate(-8 -8)"/><path d="M72,128H88v16H72Z" transform="translate(-8 -8)"/><path d="M72,160H88v16H72Z" transform="translate(-8 -8)"/><path d="M72,192H88v16H72Z" transform="translate(-8 -8)"/><path d="M328,424h16v16H328Z" transform="translate(-8 -8)"/><path d="M240,504a72,72,0,1,1,72-72A72.08,72.08,0,0,1,240,504Zm0-104a32,32,0,1,0,32,32A32,32,0,0,0,240,400Z" transform="translate(-8 -8)" fill="currentColor"/><path d="M240,472a40,40,0,1,1,40-40A40,40,0,0,1,240,472Zm0-64a24,24,0,1,0,24,24A24,24,0,0,0,240,408Z" transform="translate(-8 -8)"/><path d="M360,424h16v16H360Z" transform="translate(-8 -8)"/><path d="M392,424h16v16H392Z" transform="translate(-8 -8)"/></svg>