<svg xmlns="http://www.w3.org/2000/svg" viewBox="0 0 496 480"><path fill="currentColor" d="M379.89 248H296v32l88 16-3.79-47c-.11-.37-.21-.69-.32-1ZM96 440a56 56 0 1 1 56-56 56.06 56.06 0 0 1-56 56Z"/><path d="M96 288a96 96 0 1 0 96 96 96.1 96.1 0 0 0-96-96Zm46.67 160.84-7.74-13.41-13.86 8 7.76 13.44a78.86 78.86 0 0 1-24.83 6.72V448H88v15.59a79.05 79.05 0 0 1-24.83-6.72l7.76-13.44-13.86-8-7.74 13.41a80.74 80.74 0 0 1-18.17-18.17l13.41-7.74-8-13.86-13.44 7.76A79.05 79.05 0 0 1 16.41 392H32v-16H16.41a79.05 79.05 0 0 1 6.72-24.83l13.44 7.76 8-13.86-13.41-7.74a80.74 80.74 0 0 1 18.17-18.17l7.74 13.41 13.86-8-7.76-13.44A78.86 78.86 0 0 1 88 304.41V320h16v-15.59a79 79 0 0 1 24.83 6.72l-7.76 13.44 13.86 8 7.74-13.41a80.74 80.74 0 0 1 18.17 18.17l-13.41 7.74 8 13.86 13.44-7.76a78.86 78.86 0 0 1 6.72 24.83H160v16h15.59a79.05 79.05 0 0 1-6.72 24.83l-13.44-7.76-8 13.86 13.41 7.74a80.74 80.74 0 0 1-18.17 18.17Z"/><path d="M96 344a40 40 0 1 0 40 40 40.05 40.05 0 0 0-40-40Zm0 64a24 24 0 1 1 24-24 24 24 0 0 1-24 24Z"/><path d="M88 376h16v16H88ZM494.89 233.7l-15.2-76A56.83 56.83 0 0 0 441 114.78 47.82 47.82 0 0 0 456 80V48a48 48 0 0 0-96 0h-24v16h24v16a48 48 0 0 0 31.62 45.06l-72.45 72.47L246 185.82l-27.87-62.69 39.19-63.3A91.93 91.93 0 0 1 336 16V0a107.83 107.83 0 0 0-92.28 51.41L174.2 163.7 56 51.73C42.2 38.64 26 32 8 32H0v290.81l13.86-14.95A112 112 0 0 1 208 384v24h174.24l-5.13 25.69a1.94 1.94 0 0 1-1 1.32l-22.22 11.11a17.89 17.89 0 0 0 8 33.88H480a16 16 0 0 0 16-16V244.83a56 56 0 0 0-1.11-11.13ZM395.36 424l3.53-17.62a16.15 16.15 0 0 0 9.11-14.62l-2.43-79.94A23.89 23.89 0 0 0 392 290.15V271.8a243.16 243.16 0 0 0 26.63-2.31A665 665 0 0 1 432 401.76V424Zm39-157.32a241.74 241.74 0 0 0 44.88-14.24l.73-.3V424H448v-22.24a681.87 681.87 0 0 0-13.61-135.08ZM464 160.8l14.88 74.41-5.88 2.53a224.29 224.29 0 0 1-82.51 18.1 71.66 71.66 0 0 0-13.55-29.43L439 164.28a30.37 30.37 0 0 0 9-21.66 29.8 29.8 0 0 0-1-7.29 40.64 40.64 0 0 1 17 25.47Zm-88 109.77v15.84l-72-13.1V256h70.11a57 57 0 0 1 1.89 14.57Zm56-127.95a14.73 14.73 0 0 1-4.29 10.38l-61.92 61.9a71.81 71.81 0 0 0-27.44-13.9L407 132.28a14.64 14.64 0 0 1 25 10.34ZM408 16a32 32 0 0 1 32 32h-64a32 32 0 0 1 32-32Zm-32 64V64h64v16a32 32 0 0 1-64 0Zm-168 59.59 19.21 43.21-39.46-6.31-1.64-1.55ZM45 63.34 163.92 176h-25.26l-29.4-22.06L31 75.72a39.75 39.75 0 0 0-15-9.42V48.6c10.66 1.62 20.38 6.57 29 14.74ZM32 164a26.45 26.45 0 0 0 .41 4H16V84.05a24.47 24.47 0 0 1 3.71 3l49 49H60A28 28 0 0 0 32 164Zm28-12h24.69l13.65 13.66L112.08 176H60a12 12 0 0 1 0-24ZM16 284.1V184h24.46A27.88 27.88 0 0 0 60 192h67.81a201.67 201.67 0 0 1-13.63 65.44A128.36 128.36 0 0 0 96 256a128.43 128.43 0 0 0-80 28.1Zm114.05-23.36A217.6 217.6 0 0 0 143.81 192h39.56l145.48 23.27A55.76 55.76 0 0 1 367 240h-79v46.68l94.79 17.22a8 8 0 0 1 6.78 8.15l1 31.95h-173a128.37 128.37 0 0 0-87.52-83.26ZM221.66 360H391l1 32H224v-8a127.48 127.48 0 0 0-2.34-24ZM360 462.11a1.85 1.85 0 0 1 1-1.68l22.22-11.12a17.71 17.71 0 0 0 8.51-9.31h30.34l-12.24 6.12a17.8 17.8 0 0 0-9.87 16V464h-38.07a1.89 1.89 0 0 1-1.89-1.89Zm56 1.89v-1.89a1.85 1.85 0 0 1 1-1.68l21.08-10.54a17.67 17.67 0 0 0 8.72-9.89H480v24h-64Z"/></svg>