<svg height="496pt" viewBox="-120 0 496 496" width="496pt" xmlns="http://www.w3.org/2000/svg"><path d="M152 384h-32v-32h-16v32H88v-40H72v40H40c-8.824 0-16 7.176-16 16v16c0 8.824 7.176 16 16 16v32h33.473c-.899 2.512-1.473 5.184-1.473 8 0 13.23 10.77 24 24 24s24-10.77 24-24c0-2.816-.574-5.488-1.473-8H152v-32c8.824 0 16-7.176 16-16v-16c0-8.824-7.176-16-16-16zm-48 88c0 4.414-3.594 8-8 8s-8-3.586-8-8 3.594-8 8-8 8 3.586 8 8zm32-24H56v-16h80zm-96-32v-16h112l.008 16zM32 272h16v32H32zM144 304h16v32h-16zM32 208h16v32H32zM144 240h16v32h-16zm0 0"/><path d="M154.168 376c-2.29 0-4.488-.336-6.594-1.008L31.32 338.664C22.16 335.81 16 327.434 16 317.832 16 305.793 25.793 296 37.832 296h.063c2.226 0 4.425.336 6.53 1.008l116.255 36.328c9.16 2.855 15.32 11.23 15.32 20.832 0 12.039-9.793 21.832-21.832 21.832zM154.168 312c-2.29 0-4.488-.336-6.594-1.008L31.32 274.664C22.16 271.81 16 263.434 16 253.832 16 241.793 25.793 232 37.832 232h.063c2.226 0 4.425.336 6.53 1.008l116.255 36.328c9.16 2.855 15.32 11.23 15.32 20.832 0 12.039-9.793 21.832-21.832 21.832zm0 0" fill="currentColor"/><path d="M256 56c0-8.824-7.176-16-16-16h-8V24h-16v16h-16V24h-16v14.566L126.2 2.45A15.871 15.871 0 0 0 117.702 0H80c-8.824 0-16 7.176-16 16v32H33.754l-8 32H0v48h16v32h16v16h16v-16h96v48h16v-16h96zM80 16h32v32H80zM46.246 64h99.508l4 16H42.246zM16 96h160v16H16zm144 32v16H32v-16zm80 48h-80v-16h16v-32h16V80h-25.754l-8-32H128V22.434l49.8 31.117A15.871 15.871 0 0 0 186.298 56H240zm0 0"/><path d="M154.168 248c-2.29 0-4.488-.336-6.594-1.008L31.32 210.664C22.16 207.81 16 199.434 16 189.832 16 177.793 25.793 168 37.832 168h.063c2.226 0 4.425.336 6.53 1.008l116.255 36.328c9.16 2.855 15.32 11.23 15.32 20.832 0 12.039-9.793 21.832-21.832 21.832zm0 0" fill="currentColor"/></svg>