<svg xmlns="http://www.w3.org/2000/svg" viewBox="0 0 496 432"><title>update</title><circle cx="216" cy="216" r="160" fill="currentColor"/><path d="M112,104a24,24,0,1,1,24-24A24,24,0,0,1,112,104Z" transform="translate(-8 -40)" fill="currentColor"/><path d="M48,392a24,24,0,1,1,24-24A24,24,0,0,1,48,392Z" transform="translate(-8 -40)" fill="currentColor"/><path d="M336,456a24,24,0,1,1,24-24A24,24,0,0,1,336,456Z" transform="translate(-8 -40)" fill="currentColor"/><path d="M312,120h16v64H312Z" transform="translate(-8 -40)"/><path d="M360,120a16,16,0,0,0-16,16v32a16,16,0,0,0,16,16h16a16,16,0,0,0,16-16V136a16,16,0,0,0-16-16Zm16,48H360V136h16Z" transform="translate(-8 -40)"/><path d="M408,120h16v64H408Z" transform="translate(-8 -40)"/><path d="M440,168a16,16,0,0,0,16,16h16a16,16,0,0,0,16-16V136a16,16,0,0,0-16-16H456a16,16,0,0,0-16,16Zm16-32h16v32H456Z" transform="translate(-8 -40)"/><path d="M86.51,110.82l-11-11.6A215.86,215.86,0,0,0,23,335.14l14.89-5.87a199.87,199.87,0,0,1,48.6-218.45Z" transform="translate(-8 -40)"/><path d="M224,40a215.14,215.14,0,0,0-79.14,15l5.87,14.89A199,199,0,0,1,224,56H504V40Z" transform="translate(-8 -40)"/><path d="M424,256a198.2,198.2,0,0,1-62.51,145.18l11,11.6c41.59-39.39,65.33-92,67.37-148.78H504V248H424Z" transform="translate(-8 -40)"/><path d="M224,456A198.2,198.2,0,0,1,78.82,393.49l-11.6,11A215.86,215.86,0,0,0,303.14,457l-5.87-14.89A199,199,0,0,1,224,456Z" transform="translate(-8 -40)"/><path d="M440,88h16v16H440Z" transform="translate(-8 -40)"/><path d="M472,88h16v16H472Z" transform="translate(-8 -40)"/><path d="M440,200h16v16H440Z" transform="translate(-8 -40)"/><path d="M472,200h16v16H472Z" transform="translate(-8 -40)"/><path d="M392,216h32V200H376v48H311.82c-2.76-72.81-42.44-121.39-66-144H424V88H224C131.37,88,56,163.37,56,256s75.37,168,168,168,168-75.37,168-168ZM224,405.83A210,210,0,0,1,174.17,344h99.66A209.84,209.84,0,0,1,224,405.83ZM166.63,328a185.09,185.09,0,0,1-14.25-64H295.62a185.09,185.09,0,0,1-14.25,64ZM72.41,264h63.78A202.45,202.45,0,0,0,149,328H90.19A150.87,150.87,0,0,1,72.41,264Zm0-16a151,151,0,0,1,17.77-64H149a202.72,202.72,0,0,0-12.84,64Zm239.41,16H375.6a150.87,150.87,0,0,1-17.78,64H299A202.72,202.72,0,0,0,311.82,264ZM152.38,248a185.09,185.09,0,0,1,14.25-64H281.37a185.09,185.09,0,0,1,14.25,64Zm121.45-80H174.17A209.84,209.84,0,0,1,224,106.17,209.84,209.84,0,0,1,273.83,168ZM200.1,106.06A221.81,221.81,0,0,0,155.85,168H100.3A152,152,0,0,1,200.1,106.06ZM100.3,344h55.55a222,222,0,0,0,44.25,61.94A152,152,0,0,1,100.3,344Zm147.6,61.94A221.81,221.81,0,0,0,292.15,344H347.7A152,152,0,0,1,247.9,405.94Z" transform="translate(-8 -40)"/><path d="M216,216h16v16H216Z" transform="translate(-8 -40)"/><path d="M248,216h16v16H248Z" transform="translate(-8 -40)"/><path d="M184,216h16v16H184Z" transform="translate(-8 -40)"/><path d="M216,280h16v16H216Z" transform="translate(-8 -40)"/><path d="M248,280h16v16H248Z" transform="translate(-8 -40)"/><path d="M184,280h16v16H184Z" transform="translate(-8 -40)"/></svg>