<svg xmlns="http://www.w3.org/2000/svg" viewBox="0 0 496 504"><title>upgrade</title><path d="M464,253.77V162.23l-33.45-11.15A173.2,173.2,0,0,0,422,130.57l15.82-31.63L373.06,34.22,341.43,50a173.91,173.91,0,0,0-20.51-8.59L309.77,8H218.23L207.08,41.45A173.2,173.2,0,0,0,186.57,50L154.94,34.22,90.22,98.94,106,130.57a173.91,173.91,0,0,0-8.59,20.51L64,162.23v91.53l33.45,11.15a175.31,175.31,0,0,0,8.49,20.35L91.26,312H96v16h88l7.88-7.88-5-.12A136,136,0,1,1,336,323.4l-4.67-.1A16,16,0,0,1,320,328h32a16,16,0,0,1,0,32,15.89,15.89,0,0,1,14.9,21.7l6.76-.07,64.1-64.6L422,285.43a175.52,175.52,0,0,0,8.58-20.51Z" transform="translate(-8)" fill="currentColor"/><path d="M480,456a24,24,0,1,0,24,24A24,24,0,0,0,480,456Zm0,32a8,8,0,1,1,8-8A8,8,0,0,1,480,488Z" transform="translate(-8)"/><path d="M56,24A24,24,0,1,0,32,48,24,24,0,0,0,56,24ZM24,24a8,8,0,1,1,8,8A8,8,0,0,1,24,24Z" transform="translate(-8)"/><path d="M408,208c0-79.4-64.6-144-144-144S120,128.6,120,208a144.08,144.08,0,0,0,53.56,112H104V304H48V464h56V440h60.69l24,24H232v8a32,32,0,0,0,64,0v-8h56a23.9,23.9,0,0,0,17.76-40,23.63,23.63,0,0,0,0-32,23.63,23.63,0,0,0,0-32,23.8,23.8,0,0,0-15.55-39.78A143.13,143.13,0,0,0,408,208ZM88,448H64V320H88Zm107.31,0-24-24H104V336h83.31l32-32H320a8,8,0,0,1,0,16H236.69l-34.35,34.34,11.32,11.32L232,347.31V448ZM316.69,288H296V251.31l32-32V176a32,32,0,0,0-32-32H280v44.69L276.69,192H251.31L248,188.69V144H232a32,32,0,0,0-32,32v43.31l32,32V288H212.69l-.51.5a96,96,0,1,1,104.51-.5Zm-72-80h38.62L296,195.31V160a16,16,0,0,1,16,16v36.69L284.69,240H243.31L216,212.69V176a16,16,0,0,1,16-16v35.31ZM248,256h32v32H248ZM360,376a8,8,0,0,1-8,8H288a8,8,0,0,1,0-16h64A8,8,0,0,1,360,376Zm0,32a8,8,0,0,1-8,8H288a8,8,0,0,1,0-16h64A8,8,0,0,1,360,408Zm-96,80a16,16,0,0,1-16-16V336h17.47a23.27,23.27,0,0,0,4.77,24,23.63,23.63,0,0,0,0,32,23.63,23.63,0,0,0,0,32A23.78,23.78,0,0,0,280,462.53V472A16,16,0,0,1,264,488Zm88-40H288a8,8,0,0,1,0-16h64a8,8,0,0,1,0,16Zm8-104a8,8,0,0,1-8,8H288a8,8,0,0,1,0-16h64A8,8,0,0,1,360,344Zm-16.39-35.8a23.87,23.87,0,0,0-8-14.24,112,112,0,1,0-135.11,6.19L189,311.67a128,128,0,1,1,154.6-3.47Z" transform="translate(-8)"/><rect x="16" y="72" width="16" height="16"/><rect x="16" y="112" width="16" height="16"/><rect x="16" y="152" width="16" height="16"/><rect x="464" y="336" width="16" height="16"/><rect x="464" y="376" width="16" height="16"/><rect x="464" y="416" width="16" height="16"/></svg>